<mxfile host="app.diagrams.net" agent="Mozilla/5.0 (Windows NT 10.0; Win64; x64) AppleWebKit/537.36 (KHTML, like Gecko) Chrome/140.0.0.0 Safari/537.36 Edg/140.0.0.0" version="28.2.5">
  <diagram name="Página-1" id="TkSKEUf_A8vN1_u4OrjX">
    <mxGraphModel dx="1034" dy="570" grid="1" gridSize="10" guides="1" tooltips="1" connect="1" arrows="1" fold="1" page="1" pageScale="1" pageWidth="827" pageHeight="1169" math="0" shadow="0">
      <root>
        <mxCell id="0" />
        <mxCell id="1" parent="0" />
        <mxCell id="O35mJmS__I5Dm7um8wPa-6" style="edgeStyle=orthogonalEdgeStyle;rounded=0;orthogonalLoop=1;jettySize=auto;html=1;exitX=0.5;exitY=1;exitDx=0;exitDy=0;exitPerimeter=0;" edge="1" parent="1" source="O35mJmS__I5Dm7um8wPa-1" target="O35mJmS__I5Dm7um8wPa-5">
          <mxGeometry relative="1" as="geometry" />
        </mxCell>
        <mxCell id="O35mJmS__I5Dm7um8wPa-1" value="Inicio" style="strokeWidth=2;html=1;shape=mxgraph.flowchart.start_2;whiteSpace=wrap;" vertex="1" parent="1">
          <mxGeometry x="350" y="10" width="90" height="60" as="geometry" />
        </mxCell>
        <mxCell id="O35mJmS__I5Dm7um8wPa-8" style="edgeStyle=orthogonalEdgeStyle;rounded=0;orthogonalLoop=1;jettySize=auto;html=1;exitX=0.5;exitY=1;exitDx=0;exitDy=0;entryX=0.5;entryY=0;entryDx=0;entryDy=0;" edge="1" parent="1" source="O35mJmS__I5Dm7um8wPa-5" target="O35mJmS__I5Dm7um8wPa-7">
          <mxGeometry relative="1" as="geometry" />
        </mxCell>
        <mxCell id="O35mJmS__I5Dm7um8wPa-5" value="&lt;div&gt;Usuario Selecciona&lt;/div&gt;&quot;Subir Outfit&quot;" style="rounded=1;whiteSpace=wrap;html=1;absoluteArcSize=1;arcSize=14;strokeWidth=2;" vertex="1" parent="1">
          <mxGeometry x="330" y="140" width="130" height="80" as="geometry" />
        </mxCell>
        <mxCell id="O35mJmS__I5Dm7um8wPa-10" style="edgeStyle=orthogonalEdgeStyle;rounded=0;orthogonalLoop=1;jettySize=auto;html=1;exitX=0.5;exitY=1;exitDx=0;exitDy=0;entryX=0.5;entryY=0;entryDx=0;entryDy=0;" edge="1" parent="1" source="O35mJmS__I5Dm7um8wPa-7" target="O35mJmS__I5Dm7um8wPa-9">
          <mxGeometry relative="1" as="geometry" />
        </mxCell>
        <mxCell id="O35mJmS__I5Dm7um8wPa-7" value="Frontend Muestra Formulario&lt;div&gt;titulo, descripcion, imagen&lt;/div&gt;" style="rounded=1;whiteSpace=wrap;html=1;absoluteArcSize=1;arcSize=14;strokeWidth=2;" vertex="1" parent="1">
          <mxGeometry x="295" y="300" width="200" height="100" as="geometry" />
        </mxCell>
        <mxCell id="O35mJmS__I5Dm7um8wPa-12" style="edgeStyle=orthogonalEdgeStyle;rounded=0;orthogonalLoop=1;jettySize=auto;html=1;exitX=0.5;exitY=1;exitDx=0;exitDy=0;entryX=0.5;entryY=0;entryDx=0;entryDy=0;" edge="1" parent="1" source="O35mJmS__I5Dm7um8wPa-9" target="O35mJmS__I5Dm7um8wPa-11">
          <mxGeometry relative="1" as="geometry" />
        </mxCell>
        <mxCell id="O35mJmS__I5Dm7um8wPa-9" value="Usuario completa datos y confirma" style="rounded=1;whiteSpace=wrap;html=1;absoluteArcSize=1;arcSize=14;strokeWidth=2;" vertex="1" parent="1">
          <mxGeometry x="300" y="470" width="190" height="100" as="geometry" />
        </mxCell>
        <mxCell id="O35mJmS__I5Dm7um8wPa-11" value="Validar Datos del formulario" style="rounded=1;whiteSpace=wrap;html=1;absoluteArcSize=1;arcSize=14;strokeWidth=2;" vertex="1" parent="1">
          <mxGeometry x="290" y="640" width="210" height="100" as="geometry" />
        </mxCell>
        <mxCell id="O35mJmS__I5Dm7um8wPa-14" style="edgeStyle=orthogonalEdgeStyle;rounded=0;orthogonalLoop=1;jettySize=auto;html=1;exitX=0;exitY=0.5;exitDx=0;exitDy=0;exitPerimeter=0;entryX=0.357;entryY=0;entryDx=0;entryDy=0;entryPerimeter=0;" edge="1" parent="1" source="O35mJmS__I5Dm7um8wPa-13" target="O35mJmS__I5Dm7um8wPa-15">
          <mxGeometry relative="1" as="geometry">
            <mxPoint x="240" y="860" as="targetPoint" />
          </mxGeometry>
        </mxCell>
        <mxCell id="O35mJmS__I5Dm7um8wPa-13" value="¿Datos Validos?" style="strokeWidth=2;html=1;shape=mxgraph.flowchart.decision;whiteSpace=wrap;" vertex="1" parent="1">
          <mxGeometry x="345" y="810" width="100" height="100" as="geometry" />
        </mxCell>
        <mxCell id="O35mJmS__I5Dm7um8wPa-15" value="Muestra error en frontend" style="rounded=1;whiteSpace=wrap;html=1;absoluteArcSize=1;arcSize=14;strokeWidth=2;" vertex="1" parent="1">
          <mxGeometry x="150" y="900" width="140" height="100" as="geometry" />
        </mxCell>
        <mxCell id="O35mJmS__I5Dm7um8wPa-16" value="no" style="text;html=1;align=center;verticalAlign=middle;whiteSpace=wrap;rounded=0;" vertex="1" parent="1">
          <mxGeometry x="210" y="830" width="60" height="30" as="geometry" />
        </mxCell>
        <mxCell id="O35mJmS__I5Dm7um8wPa-17" style="edgeStyle=orthogonalEdgeStyle;rounded=0;orthogonalLoop=1;jettySize=auto;html=1;exitX=0.5;exitY=1;exitDx=0;exitDy=0;entryX=0.5;entryY=0;entryDx=0;entryDy=0;entryPerimeter=0;" edge="1" parent="1" source="O35mJmS__I5Dm7um8wPa-11" target="O35mJmS__I5Dm7um8wPa-13">
          <mxGeometry relative="1" as="geometry" />
        </mxCell>
        <mxCell id="O35mJmS__I5Dm7um8wPa-22" style="edgeStyle=orthogonalEdgeStyle;rounded=0;orthogonalLoop=1;jettySize=auto;html=1;exitX=0.5;exitY=1;exitDx=0;exitDy=0;" edge="1" parent="1" source="O35mJmS__I5Dm7um8wPa-18" target="O35mJmS__I5Dm7um8wPa-21">
          <mxGeometry relative="1" as="geometry" />
        </mxCell>
        <mxCell id="O35mJmS__I5Dm7um8wPa-18" value="Enviar datos e imagen a API crear_publicacion.php" style="rounded=1;whiteSpace=wrap;html=1;absoluteArcSize=1;arcSize=14;strokeWidth=2;" vertex="1" parent="1">
          <mxGeometry x="495" y="900" width="140" height="100" as="geometry" />
        </mxCell>
        <mxCell id="O35mJmS__I5Dm7um8wPa-19" style="edgeStyle=orthogonalEdgeStyle;rounded=0;orthogonalLoop=1;jettySize=auto;html=1;exitX=1;exitY=0.5;exitDx=0;exitDy=0;exitPerimeter=0;entryX=0.564;entryY=-0.004;entryDx=0;entryDy=0;entryPerimeter=0;" edge="1" parent="1" source="O35mJmS__I5Dm7um8wPa-13" target="O35mJmS__I5Dm7um8wPa-18">
          <mxGeometry relative="1" as="geometry" />
        </mxCell>
        <mxCell id="O35mJmS__I5Dm7um8wPa-20" value="si" style="text;html=1;align=center;verticalAlign=middle;whiteSpace=wrap;rounded=0;" vertex="1" parent="1">
          <mxGeometry x="480" y="820" width="60" height="30" as="geometry" />
        </mxCell>
        <mxCell id="O35mJmS__I5Dm7um8wPa-27" style="edgeStyle=orthogonalEdgeStyle;rounded=0;orthogonalLoop=1;jettySize=auto;html=1;exitX=0.5;exitY=1;exitDx=0;exitDy=0;" edge="1" parent="1" source="O35mJmS__I5Dm7um8wPa-21" target="O35mJmS__I5Dm7um8wPa-23">
          <mxGeometry relative="1" as="geometry" />
        </mxCell>
        <mxCell id="O35mJmS__I5Dm7um8wPa-21" value="Backend PHP valida datos e imagen" style="rounded=1;whiteSpace=wrap;html=1;absoluteArcSize=1;arcSize=14;strokeWidth=2;" vertex="1" parent="1">
          <mxGeometry x="490" y="1100" width="150" height="100" as="geometry" />
        </mxCell>
        <mxCell id="O35mJmS__I5Dm7um8wPa-25" style="edgeStyle=orthogonalEdgeStyle;rounded=0;orthogonalLoop=1;jettySize=auto;html=1;exitX=1;exitY=0.5;exitDx=0;exitDy=0;exitPerimeter=0;entryX=0.5;entryY=0;entryDx=0;entryDy=0;" edge="1" parent="1" source="O35mJmS__I5Dm7um8wPa-23" target="O35mJmS__I5Dm7um8wPa-26">
          <mxGeometry relative="1" as="geometry">
            <mxPoint x="770" y="1315" as="targetPoint" />
          </mxGeometry>
        </mxCell>
        <mxCell id="O35mJmS__I5Dm7um8wPa-29" style="edgeStyle=orthogonalEdgeStyle;rounded=0;orthogonalLoop=1;jettySize=auto;html=1;exitX=0;exitY=0.5;exitDx=0;exitDy=0;exitPerimeter=0;entryX=0.5;entryY=0;entryDx=0;entryDy=0;" edge="1" parent="1" source="O35mJmS__I5Dm7um8wPa-23" target="O35mJmS__I5Dm7um8wPa-28">
          <mxGeometry relative="1" as="geometry" />
        </mxCell>
        <mxCell id="O35mJmS__I5Dm7um8wPa-23" value="¿Imagen Valida&lt;div&gt;(formato/tamaño)?&lt;/div&gt;" style="strokeWidth=2;html=1;shape=mxgraph.flowchart.decision;whiteSpace=wrap;" vertex="1" parent="1">
          <mxGeometry x="490" y="1260" width="150" height="110" as="geometry" />
        </mxCell>
        <mxCell id="O35mJmS__I5Dm7um8wPa-26" value="Erorr imagen no valida" style="rounded=1;whiteSpace=wrap;html=1;absoluteArcSize=1;arcSize=14;strokeWidth=2;" vertex="1" parent="1">
          <mxGeometry x="730" y="1370" width="140" height="100" as="geometry" />
        </mxCell>
        <mxCell id="O35mJmS__I5Dm7um8wPa-35" style="edgeStyle=orthogonalEdgeStyle;rounded=0;orthogonalLoop=1;jettySize=auto;html=1;exitX=0.5;exitY=1;exitDx=0;exitDy=0;" edge="1" parent="1" source="O35mJmS__I5Dm7um8wPa-28" target="O35mJmS__I5Dm7um8wPa-33">
          <mxGeometry relative="1" as="geometry" />
        </mxCell>
        <mxCell id="O35mJmS__I5Dm7um8wPa-28" value="Guardar foto en carpeta Uploads/" style="rounded=1;whiteSpace=wrap;html=1;absoluteArcSize=1;arcSize=14;strokeWidth=2;" vertex="1" parent="1">
          <mxGeometry x="290" y="1370" width="130" height="100" as="geometry" />
        </mxCell>
        <mxCell id="O35mJmS__I5Dm7um8wPa-31" value="no" style="text;html=1;align=center;verticalAlign=middle;whiteSpace=wrap;rounded=0;" vertex="1" parent="1">
          <mxGeometry x="660" y="1280" width="110" height="30" as="geometry" />
        </mxCell>
        <mxCell id="O35mJmS__I5Dm7um8wPa-32" value="si" style="text;html=1;align=center;verticalAlign=middle;whiteSpace=wrap;rounded=0;" vertex="1" parent="1">
          <mxGeometry x="340" y="1280" width="110" height="30" as="geometry" />
        </mxCell>
        <mxCell id="O35mJmS__I5Dm7um8wPa-37" style="edgeStyle=orthogonalEdgeStyle;rounded=0;orthogonalLoop=1;jettySize=auto;html=1;exitX=0.5;exitY=1;exitDx=0;exitDy=0;" edge="1" parent="1" source="O35mJmS__I5Dm7um8wPa-33" target="O35mJmS__I5Dm7um8wPa-36">
          <mxGeometry relative="1" as="geometry" />
        </mxCell>
        <mxCell id="O35mJmS__I5Dm7um8wPa-33" value="Insertar datos en base de datos MySQL" style="rounded=1;whiteSpace=wrap;html=1;absoluteArcSize=1;arcSize=14;strokeWidth=2;" vertex="1" parent="1">
          <mxGeometry x="275" y="1590" width="160" height="100" as="geometry" />
        </mxCell>
        <mxCell id="O35mJmS__I5Dm7um8wPa-39" style="edgeStyle=orthogonalEdgeStyle;rounded=0;orthogonalLoop=1;jettySize=auto;html=1;exitX=0.5;exitY=1;exitDx=0;exitDy=0;entryX=0.5;entryY=0;entryDx=0;entryDy=0;" edge="1" parent="1" source="O35mJmS__I5Dm7um8wPa-36" target="O35mJmS__I5Dm7um8wPa-38">
          <mxGeometry relative="1" as="geometry" />
        </mxCell>
        <mxCell id="O35mJmS__I5Dm7um8wPa-36" value="Confirmar Insercion" style="rounded=1;whiteSpace=wrap;html=1;absoluteArcSize=1;arcSize=14;strokeWidth=2;" vertex="1" parent="1">
          <mxGeometry x="270" y="1770" width="170" height="100" as="geometry" />
        </mxCell>
        <mxCell id="O35mJmS__I5Dm7um8wPa-41" style="edgeStyle=orthogonalEdgeStyle;rounded=0;orthogonalLoop=1;jettySize=auto;html=1;exitX=0.5;exitY=1;exitDx=0;exitDy=0;" edge="1" parent="1" source="O35mJmS__I5Dm7um8wPa-38" target="O35mJmS__I5Dm7um8wPa-40">
          <mxGeometry relative="1" as="geometry" />
        </mxCell>
        <mxCell id="O35mJmS__I5Dm7um8wPa-38" value="Devolver respuesta JSON al frontend" style="rounded=1;whiteSpace=wrap;html=1;absoluteArcSize=1;arcSize=14;strokeWidth=2;" vertex="1" parent="1">
          <mxGeometry x="270" y="1950" width="170" height="100" as="geometry" />
        </mxCell>
        <mxCell id="O35mJmS__I5Dm7um8wPa-40" value="Frontend muestra mensaje &quot;Publicacion Subida con exito&quot;" style="rounded=1;whiteSpace=wrap;html=1;absoluteArcSize=1;arcSize=14;strokeWidth=2;" vertex="1" parent="1">
          <mxGeometry x="270" y="2140" width="170" height="100" as="geometry" />
        </mxCell>
        <mxCell id="O35mJmS__I5Dm7um8wPa-42" value="FIN" style="strokeWidth=2;html=1;shape=mxgraph.flowchart.start_2;whiteSpace=wrap;" vertex="1" parent="1">
          <mxGeometry x="317.5" y="2360" width="75" height="70" as="geometry" />
        </mxCell>
        <mxCell id="O35mJmS__I5Dm7um8wPa-44" style="edgeStyle=orthogonalEdgeStyle;rounded=0;orthogonalLoop=1;jettySize=auto;html=1;exitX=0.5;exitY=1;exitDx=0;exitDy=0;entryX=0.5;entryY=0;entryDx=0;entryDy=0;entryPerimeter=0;" edge="1" parent="1" source="O35mJmS__I5Dm7um8wPa-40" target="O35mJmS__I5Dm7um8wPa-42">
          <mxGeometry relative="1" as="geometry" />
        </mxCell>
      </root>
    </mxGraphModel>
  </diagram>
</mxfile>
